<svg width="214" height="172" viewBox="0 0 214 172" fill="none" xmlns="http://www.w3.org/2000/svg">
<path opacity="0.5" d="M0.333313 86C0.333313 45.7734 0.333314 25.6603 12.8301 13.1634C25.3269 0.666655 45.4401 0.666656 85.6666 0.666656H128.333C168.559 0.666656 188.674 0.666655 201.17 13.1634C213.667 25.6603 213.667 45.7734 213.667 86C213.667 126.226 213.667 146.34 201.17 158.836C188.674 171.333 168.559 171.333 128.333 171.333H85.6666C45.4401 171.333 25.3269 171.333 12.8301 158.836C0.333314 146.34 0.333313 126.226 0.333313 86Z" fill="#FF7F50"/>
<path d="M115.004 64.6667C115.004 60.2484 111.422 56.6667 107.004 56.6667C102.585 56.6667 99.0043 60.2484 99.0043 64.6667V72.1461L92.5243 68.4053C88.6981 66.1963 83.8056 67.5072 81.5965 71.3333C79.3873 75.1595 80.6983 80.0523 84.5247 82.2613L90.9989 85.9989L84.5221 89.7387C80.6958 91.9477 79.3848 96.8405 81.5939 100.667C83.8031 104.493 88.696 105.804 92.5221 103.595L99.0043 99.8528V107.333C99.0043 111.751 102.585 115.333 107.004 115.333C111.422 115.333 115.004 111.751 115.004 107.333V99.8592L121.475 103.595C125.302 105.804 130.195 104.493 132.404 100.667C134.613 96.8405 133.302 91.9477 129.475 89.7387L122.999 85.9989L129.473 82.2613C133.299 80.0523 134.61 75.1595 132.401 71.3333C130.191 67.5072 125.299 66.1963 121.473 68.4053L115.004 72.1397V64.6667Z" fill="#FF7F50"/>
<path d="M50.8163 56.6667C55.2347 56.6667 58.8163 60.2484 58.8163 64.6667V72.1397L65.2851 68.4053C69.1114 66.1963 74.0042 67.5072 76.2133 71.3333C78.4224 75.1595 77.1114 80.0523 73.2851 82.2613L66.8111 85.9989L73.2876 89.7387C77.1139 91.9477 78.4249 96.8405 76.2158 100.667C74.0066 104.493 69.1139 105.804 65.2876 103.595L58.8163 99.8592V107.333C58.8163 111.751 55.2347 115.333 50.8163 115.333C46.3981 115.333 42.8163 111.751 42.8163 107.333V99.8528L36.3347 103.595C32.5084 105.804 27.6156 104.493 25.4065 100.667C23.1973 96.8405 24.5084 91.9477 28.3347 89.7387L34.8111 85.9989L28.3372 82.2613C24.5108 80.0523 23.1998 75.1595 25.4089 71.3333C27.6181 67.5072 32.5108 66.1963 36.3372 68.4053L42.8163 72.1461V64.6667C42.8163 60.2484 46.3981 56.6667 50.8163 56.6667Z" fill="#FF7F50"/>
<path d="M171.194 64.6667C171.194 60.2484 167.612 56.6667 163.194 56.6667C158.776 56.6667 155.194 60.2484 155.194 64.6667V72.1461L148.715 68.4053C144.888 66.1963 139.996 67.5072 137.787 71.3333C135.577 75.1595 136.888 80.0523 140.715 82.2613L147.189 85.9989L140.712 89.7387C136.886 91.9477 135.575 96.8405 137.784 100.667C139.993 104.493 144.886 105.804 148.712 103.595L155.194 99.8528V107.333C155.194 111.751 158.776 115.333 163.194 115.333C167.612 115.333 171.194 111.751 171.194 107.333V99.8592L177.666 103.595C181.492 105.804 186.385 104.493 188.594 100.667C190.803 96.8405 189.492 91.9477 185.666 89.7387L179.189 85.9989L185.662 82.2613C189.49 80.0523 190.801 75.1595 188.591 71.3333C186.381 67.5072 181.49 66.1963 177.662 68.4053L171.194 72.1397V64.6667Z" fill="#FF7F50"/>
</svg>
